# xmcd CD database file
#
# Track frame offsets:
#	150
#	27592
#	54427
#
# Disc length: 1088 seconds
#
# Revision: 1
# Processed by: cddbd v1.5.1PL0 Copyright (c) Steve Scherf et al.
# Submitted via: CDex 1.51
#
DISCID=20043e03
DTITLE=ヒートウェイヴ - Sweet Revolution
DYEAR=1994
DGENRE=Rock
TTITLE0=Sweet Revolution
TTITLE1=らん・らん・らん
TTITLE2=灯り
EXTD=YEAR: 1994
EXTT0=
EXTT1=
EXTT2=
PLAYORDER=
